<?xml version="1.0" standalone="no"?>
<!DOCTYPE svg PUBLIC "-//W3C//DTD SVG 20010904//EN"
 "http://www.w3.org/TR/2001/REC-SVG-20010904/DTD/svg10.dtd">
<svg version="1.0" xmlns="http://www.w3.org/2000/svg"
 width="155.000000pt" height="157.000000pt" viewBox="0 0 155.000000 157.000000"
 preserveAspectRatio="xMidYMid meet">

<g transform="translate(0.000000,157.000000) scale(0.100000,-0.100000)"
fill="#000000" stroke="none">
<path d="M588 1224 c-75 -18 -184 -74 -230 -119 -21 -20 -50 -57 -65 -83 -28
-46 -28 -49 -31 -246 -4 -227 2 -259 57 -332 50 -66 129 -118 231 -151 73 -24
101 -28 200 -28 97 1 129 5 200 27 101 32 176 80 228 147 58 73 64 108 60 337
-3 195 -4 200 -30 245 -59 101 -172 176 -308 205 -82 17 -237 17 -312 -2z
m241 -100 c38 -19 62 -40 82 -72 47 -75 36 -133 -35 -173 -35 -20 -55 -24
-131 -24 -70 0 -97 4 -118 18 -15 9 -27 22 -27 27 0 19 59 40 129 46 l71 7 0
48 0 49 -37 0 c-48 0 -155 -25 -193 -45 -37 -19 -60 -62 -60 -112 0 -30 -5
-40 -22 -48 -28 -12 -35 -56 -13 -79 22 -22 40 -20 64 5 l19 20 67 -20 c37
-12 91 -21 120 -21 75 0 179 35 223 74 30 27 43 33 69 29 25 -4 34 0 43 17 16
30 9 63 -16 74 -16 7 -23 22 -27 51 -4 22 -9 49 -13 58 -21 55 77 -28 101 -86
68 -163 -109 -307 -375 -307 -146 0 -268 43 -339 118 -26 28 -63 107 -40 85
16 -16 51 -17 67 -1 15 15 15 61 0 76 -16 16 -51 15 -67 0 -9 -9 -8 -2 3 25
32 79 132 144 261 171 102 21 135 19 194 -10z m-350 -509 c72 -36 167 -55 279
-55 74 0 92 -3 92 -15 0 -15 30 -35 52 -35 25 0 42 19 43 45 1 23 11 31 62 54
33 14 76 39 96 54 l37 28 0 -61 c0 -57 -22 -130 -39 -130 -3 0 -11 10 -16 22
-17 36 -41 45 -65 23 -27 -24 -23 -66 8 -81 21 -10 21 -12 5 -26 -10 -9 -39
-25 -66 -36 -169 -74 -403 -46 -533 62 -56 47 -74 87 -74 166 l0 61 33 -24
c17 -14 56 -37 86 -52z"/>
<path d="M715 490 c-35 -39 3 -91 55 -75 28 9 37 51 15 75 -10 11 -26 20 -35
20 -9 0 -25 -9 -35 -20z"/>
</g>
</svg>
